<svg xmlns="http://www.w3.org/2000/svg" width="612" height="612"><path fill="#0a80f9" d="M61.246 411.197c-31.376 0-56.811 25.434-56.811 56.809 0 31.377 25.436 56.811 56.811 56.811s56.81-25.434 56.81-56.811c0-31.375-25.435-56.809-56.81-56.809zm0 85.215c-15.688 0-28.405-12.717-28.405-28.404s12.718-28.406 28.405-28.406c15.687 0 28.405 12.719 28.405 28.406s-12.717 28.404-28.405 28.404zm437.101-140.24L421.07 404.02a27.138 27.138 0 01-2.235-10.785v-75.26c0-3.486.715-6.791 1.907-9.855l77.605 48.052zm-67.732-60.613c4.404-3.051 9.732-4.861 15.495-4.861h138.614c4.91 0 9.454 1.401 13.435 3.673l-84.731 52.463-82.813-51.275zm97.893 60.613l80.717-49.979c1.725 3.58 2.775 7.543 2.775 11.783v75.258c0 4.584-1.238 8.838-3.236 12.631l-80.256-49.693zm-123.566 78.105h144.623v28.924h-138.62c-1.62-24.09-15.225-44.896-34.927-56.537v-.051c.116.068.246.117.361.186l-.361-.713V116.107h28.924v318.17zm192.24-16.91c-3.75 1.941-7.943 3.143-12.458 3.143H446.109c-5.375 0-10.354-1.607-14.578-4.293l81.896-50.709 83.755 51.859zm-98.835-206.513l-77.277 47.849a27.143 27.143 0 01-2.235-10.786v-75.259c0-3.486.715-6.791 1.907-9.855l77.605 48.051zm-67.732-60.612c4.404-3.051 9.732-4.86 15.495-4.86h138.614c4.91 0 9.454 1.4 13.435 3.672l-84.731 52.463-82.813-51.275zm97.893 60.612l80.717-49.978c1.725 3.58 2.775 7.542 2.775 11.782v75.259c0 4.584-1.238 8.838-3.236 12.629l-80.256-49.692zm68.674 61.196c-3.75 1.941-7.943 3.143-12.458 3.143H446.109c-5.375 0-10.354-1.609-14.578-4.294l81.896-50.708 83.755 51.859zM226.38 110.95a43.386 43.386 0 00-38.697-23.766H94.005c-15.975 0-28.925 12.95-28.925 28.925v151.854H36.155C16.188 267.961 0 284.148 0 304.116v127.485c12.438-20.898 35.216-34.855 61.248-34.855 37.674 0 68.624 29.359 71.154 66.455H268.78c2.531-37.096 33.408-66.455 71.154-66.455a70.835 70.835 0 0136.084 9.867v-.529L226.38 110.95zm54.766 215.15H117.578a7.205 7.205 0 01-7.23-7.23V139.103a7.205 7.205 0 017.23-7.23h71.226a7.211 7.211 0 016.436 3.904l92.342 179.767c2.458 4.843-1.013 10.556-6.436 10.556zm58.769 85.097c-31.376 0-56.811 25.434-56.811 56.809 0 31.377 25.436 56.811 56.811 56.811s56.811-25.434 56.811-56.811c0-31.375-25.436-56.809-56.811-56.809zm0 85.215c-15.688 0-28.405-12.717-28.405-28.404s12.718-28.406 28.405-28.406c15.687 0 28.405 12.719 28.405 28.406s-12.717 28.404-28.405 28.404z"/></svg>