<?xml version="1.0" encoding="utf-8"?><svg xmlns="http://www.w3.org/2000/svg" xmlns:xlink="http://www.w3.org/1999/xlink"><symbol id="arrow-down" viewBox="0 0 260.3 139.5" xml:space="preserve" xmlns="http://www.w3.org/2000/svg"><style>.ast0{fill:none;stroke:#fff;stroke-width:2;stroke-linecap:square;stroke-miterlimit:8}</style><path class="ast0" d="M118.1 114.8l12 12 12-12m-12-103.2v113.2"/><path d="M130.1 126.8v-2" fill="none" stroke="#fff" stroke-width="2" stroke-linecap="round" stroke-miterlimit="8"/></symbol><symbol viewBox="0 0 24 24" id="burger" xmlns="http://www.w3.org/2000/svg"><path fill="none" d="M0 0h24v24H0z"/><path class="bpathburger" fill="#fff" d="M3 4h18v2H3V4zm6 7h12v2H9v-2zm-6 7h18v2H3v-2z"/></symbol><symbol viewBox="0 0 47.971 47.971" id="close" xmlns="http://www.w3.org/2000/svg"><path fill="#48556b" d="M28.228 23.986L47.092 5.122a2.998 2.998 0 000-4.242 2.998 2.998 0 00-4.242 0L23.986 19.744 5.121.88a2.998 2.998 0 00-4.242 0 2.998 2.998 0 000 4.242l18.865 18.864L.879 42.85a2.998 2.998 0 104.242 4.241l18.865-18.864L42.85 47.091c.586.586 1.354.879 2.121.879s1.535-.293 2.121-.879a2.998 2.998 0 000-4.242L28.228 23.986z"/></symbol><symbol viewBox="0 0 612 612" id="delivery-package" xmlns="http://www.w3.org/2000/svg"><path fill="#0a80f9" d="M482.188 83.333L184.622 223.225v89.832l-51.91-23.082v-89.832L430.278 60.252l-99.946-44.439c-13.383-5.95-35.281-5.95-48.664 0L35.557 125.243C15.95 133.961-.05 158.649 0 180.107l.606 256.534c.051 21.686 16.408 46.401 36.348 54.926L282.42 596.499c12.945 5.534 34.129 5.534 47.075.003l245.55-104.936c19.939-8.521 36.297-33.234 36.348-54.919l.607-256.54c.051-21.458-15.949-46.146-35.557-54.864l-94.255-41.91zm74.21 205.342l-14.403 6.683-.292 101.353c-.013 4.429-3.925 9.701-8.727 11.773l-21.563 9.309c-4.727 2.041-8.551.149-8.554-4.223l-.073-100.021-13.951 6.472c-6.562 3.044-10.669-1.729-7.411-8.601l33.348-70.356c3.366-7.102 11.806-11.199 15.184-7.347l34.221 39.012c3.416 3.894-.92 12.765-7.779 15.946zM415.596 451.443c.037 4.243-3.55 9.24-8.001 11.162l-19.996 8.632c-4.385 1.893-7.972.029-8.022-4.16l-1.171-95.826-12.938 6.002c-6.085 2.823-9.968-1.808-7.006-8.344l30.31-66.881c3.057-6.747 10.873-10.541 14.062-6.805l32.301 37.836c3.226 3.777-.712 12.202-7.062 15.147l-13.338 6.188.861 97.049zm164.605-27.824c-.015 2.226-2.016 4.865-4.468 5.896l-228.395 95.95c-2.131.896-3.884-.043-3.915-2.096l-.175-11.162c-.032-2.058 1.67-4.463 3.805-5.372l228.802-97.467c2.455-1.046 4.438-.086 4.423 2.146l-.077 12.105z"/></symbol><symbol viewBox="0 -2 512 512" id="global" xmlns="http://www.w3.org/2000/svg"><path fill="#0a80f9" d="M241 507.355V398.512c-27.258 1.039-54.254 4.883-79.941 11.254 4.136 9.996 8.664 19.57 13.566 28.609 19.566 36.055 43.883 60.977 66.375 68.98zm96.375-68.98c4.902-9.035 9.43-18.613 13.566-28.61-25.687-6.37-52.683-10.214-79.941-11.253v108.843c22.492-8.003 46.809-32.925 66.375-68.98zM241 368.492v-99.816H131.61c1.367 38.969 8.015 77.71 19.148 112.785 28.98-7.434 59.496-11.875 90.242-12.969zm0-129.812v-99.817c-30.746-1.093-61.262-5.535-90.242-12.965-11.133 35.075-17.781 73.813-19.149 112.782zM379.953 89.129c18.246-6.152 35.543-13.64 51.45-22.348-27.93-26.23-61.716-46.3-99.169-57.984 11.22 12.676 21.832 28.05 31.504 45.875 5.942 10.941 11.348 22.465 16.215 34.457zM174.625 68.98c-4.902 9.04-9.43 18.614-13.566 28.61 25.687 6.37 52.683 10.215 79.941 11.254V0c-22.492 8.004-46.809 32.926-66.375 68.98zM271 268.676v99.816c30.75 1.098 61.262 5.535 90.242 12.969 11.133-35.074 17.781-73.816 19.153-112.785zm0-129.813v99.817h109.39c-1.367-38.97-8.015-77.707-19.148-112.782-28.98 7.43-59.492 11.872-90.242 12.965zM121.879 390.04c-11.992-37.759-18.961-79.083-20.3-121.364H0c3.285 56.68 25.059 108.472 59.367 149.433 19.11-11.09 40.176-20.504 62.512-28.07zm258.074 28.187c-4.871 11.992-10.277 23.515-16.215 34.46-9.672 17.825-20.285 33.196-31.504 45.872 37.454-11.684 71.239-31.754 99.172-57.985-15.91-8.707-33.207-16.195-51.453-22.347zm-247.906 0c-18.246 6.152-35.543 13.64-51.45 22.347 27.93 26.235 61.716 46.301 99.169 57.989-11.215-12.68-21.828-28.051-31.504-45.875-5.942-10.946-11.348-22.47-16.215-34.461zm258.074-300.911c11.992 37.758 18.961 79.082 20.3 121.364H512c-3.285-56.68-25.059-108.47-59.367-149.43-19.11 11.09-40.176 20.5-62.512 28.066zm0 272.724c22.336 7.565 43.402 16.976 62.512 28.065 34.308-40.96 56.082-92.753 59.367-149.43H410.422c-1.34 42.282-8.309 83.606-20.3 121.364zM271 0v108.844c27.258-1.04 54.254-4.883 79.941-11.25-4.136-10-8.66-19.574-13.566-28.614C317.809 32.926 293.492 8.004 271 0zM121.879 117.316C99.543 109.75 78.477 100.34 59.367 89.25 25.055 130.21 3.285 182.004 0 238.68h101.578c1.34-42.282 8.309-83.606 20.3-121.364zm10.168-28.187c4.871-11.992 10.277-23.516 16.215-34.457 9.672-17.828 20.285-33.2 31.504-45.875C142.313 20.48 108.527 40.55 80.594 66.78c15.91 8.707 33.207 16.196 51.453 22.348zm0 0"/></symbol><symbol viewBox="0 0 495.622 495.622" id="hand-shake" xmlns="http://www.w3.org/2000/svg"><path d="M495.622 113.089v150.03s-32.11 6.326-38.725 7.158c-6.594.83-27.316 7.521-42.334-6.914-23.16-22.197-105.447-104.03-105.447-104.03s-14.188-13.922-36.969-1.89c-20.912 11.022-51.911 27.175-64.859 33.465-24.477 13.028-44.764-7.642-44.764-23.387 0-12.213 7.621-20.502 18.515-26.598 29.524-17.898 91.752-52.827 117.67-66.598 15.754-8.379 27.105-9.097 48.734 9.124 26.638 22.403 50.344 42.824 50.344 42.824s7.732 6.453 20.063 3.854c30.28-6.402 77.772-17.038 77.772-17.038zM168.098 367.3c3.985-10.238 2.653-21.689-4.987-29.545-6.865-7.027-16.888-8.879-26.445-6.689 2.673-9.479 1.197-19.568-5.705-26.688-6.886-7.009-16.89-8.898-26.446-6.688 2.653-9.465 1.181-19.553-5.725-26.652-10.814-11.092-29.519-10.616-41.807 1.097-12.223 11.729-20.053 32.979-9.144 45.487 10.891 12.445 23.405 4.873 32.945 2.699-2.654 9.465-10.606 18.269-.813 30.658 9.784 12.395 23.404 4.875 32.954 2.721-2.663 9.429-10.268 19.117-.851 30.604 9.502 11.522 25.065 5.383 35.344 2.19-3.967 10.199-12.458 21.193-1.549 33.513 10.892 12.409 36.063 6.668 48.358-5.063 12.262-11.729 13.439-30.318 2.654-41.445-7.446-7.634-18.546-9.41-28.783-6.199zm224.344-78.054c-88.88-88.881-47.075-47.058-94.906-94.992 0 0-14.375-14.311-33.321-5.998-13.3 5.828-30.423 13.771-43.307 19.835-14.158 7.424-24.347 9.722-29.131 9.69-27.37-.179-49.576-22.178-49.576-49.521 0-17.738 9.417-33.181 23.462-41.947 19.75-13.667 65.21-37.847 65.21-37.847s-13.849-17.549-44.187-17.549c-30.329 0-93.695 41.512-93.695 41.512s-17.976 11.514-43.601 1.143L0 96.373V268.05s14.103 4.082 26.775 9.258c2.862-8.162 7.48-15.699 13.886-21.924 21.023-20.024 55.869-20.232 74.996-.537 5.762 5.987 9.783 13.129 11.835 21.024 7.707 2.379 14.688 6.593 20.298 12.373a47.226 47.226 0 0111.854 20.984c7.698 2.381 14.669 6.611 20.298 12.395 6.339 6.537 10.562 14.433 12.534 22.988a48.588 48.588 0 0121.176 12.693c11.495 11.807 15.575 27.826 13.103 43.278.02 0 .058 0 .076.035.188.246 7.122 7.976 11.446 12.336 8.474 8.482 22.311 8.482 30.811 0 8.444-8.479 8.481-22.289 0-30.811-.304-.303-30.572-31.963-28.136-34.418 2.418-2.438 40.981 37.688 41.699 38.422 8.463 8.465 22.291 8.465 30.792 0 8.481-8.479 8.463-22.289 0-30.791-.416-.396-2.152-2.059-2.796-2.721 0 0-38.234-34.06-35.324-36.97 2.946-2.928 50.438 41.392 50.515 41.392 8.537 7.688 21.687 7.631 29.9-.586 7.991-7.99 8.162-20.629 1.078-29.146-.15-.453-36.194-38.121-33.381-40.955 2.854-2.871 38.519 33.853 38.594 33.929 8.444 8.463 22.291 8.463 30.792 0 8.463-8.464 8.463-22.291 0-30.83-.115-.072-.266-.148-.379-.222z" fill="#0a80f9"/></symbol><symbol viewBox="0 0 561 561" id="mountain-range" xmlns="http://www.w3.org/2000/svg"><path fill="#0a80f9" d="M331.5 127.5L234.6 255l73.95 96.9-40.8 30.6C224.4 326.4 153 229.5 153 229.5L0 433.5h561l-229.5-306z"/></symbol><symbol viewBox="0 0 100 100" preserveAspectRatio="xMidYMid" class="huil-ripple" id="ripple" xmlns="http://www.w3.org/2000/svg"><path fill="none" class="hbk" d="M0 0h100v100H0z"/><g><animate attributeName="opacity" dur="2s" repeatCount="indefinite" begin="0s" keyTimes="0;0.33;1" values="1;1;0"/><circle cx="50" cy="50" r="40" stroke="#cec9c9" fill="none" stroke-width="6" stroke-linecap="round"><animate attributeName="r" dur="2s" repeatCount="indefinite" begin="0s" keyTimes="0;0.33;1" values="0;22;44"/></circle></g><g><animate attributeName="opacity" dur="2s" repeatCount="indefinite" begin="1s" keyTimes="0;0.33;1" values="1;1;0"/><circle cx="50" cy="50" r="40" stroke="#3c302e" fill="none" stroke-width="6" stroke-linecap="round"><animate attributeName="r" dur="2s" repeatCount="indefinite" begin="1s" keyTimes="0;0.33;1" values="0;22;44"/></circle></g></symbol><symbol viewBox="0 0 512 512" id="support" xmlns="http://www.w3.org/2000/svg"><path fill="#0a80f9" d="M256 0C148.059 0 60.234 87.824 60.234 195.766v180.703c0 24.914 20.266 45.18 45.176 45.18 24.914 0 45.18-20.266 45.18-45.18V225.883c0-24.91-20.266-45.176-45.18-45.176-5.07 0-9.867 1.027-14.426 2.574C97.41 97.77 168.887 30.117 256 30.117c87.066 0 158.523 67.59 165.008 153.043-4.531-1.55-9.356-2.453-14.418-2.453-24.914 0-45.18 20.266-45.18 45.176v150.586c0 24.914 20.266 45.18 45.18 45.18 5.305 0 10.324-1.087 15.058-2.774v17.832c0 8.309-6.765 15.059-15.058 15.059H298.402c-6.238-17.493-22.797-30.118-42.402-30.118-24.91 0-45.176 20.266-45.176 45.176C210.824 491.734 231.09 512 256 512c19.605 0 36.164-12.629 42.402-30.117H406.59c24.91 0 45.176-20.266 45.176-45.176V195.766C451.766 87.824 363.94 0 256 0zm225.883 213.598v175.156C499.37 382.52 512 365.96 512 346.352V256c0-19.605-12.629-36.164-30.117-42.402zM0 256v90.352c0 19.609 12.629 36.168 30.117 42.402V213.598C12.63 219.836 0 236.395 0 256zm0 0"/></symbol><symbol viewBox="0 0 612 612" id="truck" xmlns="http://www.w3.org/2000/svg"><path fill="#0a80f9" d="M61.246 411.197c-31.376 0-56.811 25.434-56.811 56.809 0 31.377 25.436 56.811 56.811 56.811s56.81-25.434 56.81-56.811c0-31.375-25.435-56.809-56.81-56.809zm0 85.215c-15.688 0-28.405-12.717-28.405-28.404s12.718-28.406 28.405-28.406c15.687 0 28.405 12.719 28.405 28.406s-12.717 28.404-28.405 28.404zm437.101-140.24L421.07 404.02a27.138 27.138 0 01-2.235-10.785v-75.26c0-3.486.715-6.791 1.907-9.855l77.605 48.052zm-67.732-60.613c4.404-3.051 9.732-4.861 15.495-4.861h138.614c4.91 0 9.454 1.401 13.435 3.673l-84.731 52.463-82.813-51.275zm97.893 60.613l80.717-49.979c1.725 3.58 2.775 7.543 2.775 11.783v75.258c0 4.584-1.238 8.838-3.236 12.631l-80.256-49.693zm-123.566 78.105h144.623v28.924h-138.62c-1.62-24.09-15.225-44.896-34.927-56.537v-.051c.116.068.246.117.361.186l-.361-.713V116.107h28.924v318.17zm192.24-16.91c-3.75 1.941-7.943 3.143-12.458 3.143H446.109c-5.375 0-10.354-1.607-14.578-4.293l81.896-50.709 83.755 51.859zm-98.835-206.513l-77.277 47.849a27.143 27.143 0 01-2.235-10.786v-75.259c0-3.486.715-6.791 1.907-9.855l77.605 48.051zm-67.732-60.612c4.404-3.051 9.732-4.86 15.495-4.86h138.614c4.91 0 9.454 1.4 13.435 3.672l-84.731 52.463-82.813-51.275zm97.893 60.612l80.717-49.978c1.725 3.58 2.775 7.542 2.775 11.782v75.259c0 4.584-1.238 8.838-3.236 12.629l-80.256-49.692zm68.674 61.196c-3.75 1.941-7.943 3.143-12.458 3.143H446.109c-5.375 0-10.354-1.609-14.578-4.294l81.896-50.708 83.755 51.859zM226.38 110.95a43.386 43.386 0 00-38.697-23.766H94.005c-15.975 0-28.925 12.95-28.925 28.925v151.854H36.155C16.188 267.961 0 284.148 0 304.116v127.485c12.438-20.898 35.216-34.855 61.248-34.855 37.674 0 68.624 29.359 71.154 66.455H268.78c2.531-37.096 33.408-66.455 71.154-66.455a70.835 70.835 0 0136.084 9.867v-.529L226.38 110.95zm54.766 215.15H117.578a7.205 7.205 0 01-7.23-7.23V139.103a7.205 7.205 0 017.23-7.23h71.226a7.211 7.211 0 016.436 3.904l92.342 179.767c2.458 4.843-1.013 10.556-6.436 10.556zm58.769 85.097c-31.376 0-56.811 25.434-56.811 56.809 0 31.377 25.436 56.811 56.811 56.811s56.811-25.434 56.811-56.811c0-31.375-25.436-56.809-56.811-56.809zm0 85.215c-15.688 0-28.405-12.717-28.405-28.404s12.718-28.406 28.405-28.406c15.687 0 28.405 12.719 28.405 28.406s-12.717 28.404-28.405 28.404z"/></symbol><symbol viewBox="0 0 612 612" id="truckworld" xmlns="http://www.w3.org/2000/svg"><path fill="#0a80f9" d="M547.624 94.812C497.053 35.875 423.508 2.076 345.836 2.076c-77.757 0-151.31 33.808-201.754 92.703-41.581 48.204-64.485 109.831-64.485 173.538 0 11.554.776 23.034 2.257 34.383h35.293c-1.068-7.089-1.921-14.221-2.327-21.424h81.782c.193 7.267.718 14.343 1.23 21.424h26.104c-.571-7.078-1.105-14.178-1.323-21.424h110.198v61.121c5.837 2.571 11.232 6.17 15.901 10.782l10.081 9.976v-81.88h110.206c-1.096 36.487-6.783 71.046-15.925 101.606-27.467-7.021-56.593-11.062-86.832-12.356l29.059 28.752c16.918 1.897 33.478 4.661 49.234 8.533-3.892 9.934-8.234 19.179-12.864 27.859 7.345 8.957 11.586 20.249 11.974 31.864 10.185-15.285 19.166-32.924 26.628-52.583 14.32 4.696 27.569 10.225 39.692 16.512a231.33 231.33 0 01-66.233 46.615v37.769c39.653-15.683 75.398-40.858 103.867-73.982C589.129 393.718 612 332.091 612 268.316c0-63.767-22.871-125.393-64.376-173.504zM196.602 255.291h-81.778a230.799 230.799 0 0149.354-130.088c14.821 8.143 31.231 15.127 48.95 20.985-9.629 32.708-15.475 69.615-16.526 109.103zm24.73-133.646c-14.269-4.709-27.492-10.239-39.611-16.513 22.29-22.508 48.73-40.014 77.655-51.659-14.993 18.368-27.902 41.444-38.044 68.172zm111.479 133.646H222.613c1.096-36.476 6.78-71.025 15.917-101.578 29.803 7.567 61.407 11.825 94.28 12.715v88.863h.001zm0-115.342c-29.606-.845-58.756-4.566-85.744-11.161C264.58 84.069 290.079 51.1 319.088 38.3c4.551-.527 9.122-.947 13.722-1.205l.001 102.854zm243.961 115.342H495.01c-1.05-39.48-6.894-76.383-16.521-109.087 17.774-5.88 34.204-12.867 49.008-20.997 29.41 37.23 46.6 82.624 49.275 130.084zm-217.978-218.2c4.597.256 9.163.677 13.711 1.204 29.022 12.795 54.528 45.775 72.047 90.51-26.982 6.59-56.138 10.308-85.758 11.147V37.091zm0 218.2v-88.862c32.879-.885 64.493-5.138 94.294-12.697 9.134 30.549 14.816 65.091 15.912 101.559H358.794zm73.444-201.814c28.918 11.646 55.371 29.154 77.701 51.667-12.11 6.257-25.348 11.786-39.654 16.512-10.142-26.732-23.054-49.809-38.047-68.179zm95.282 357.932c-14.827-8.172-31.273-15.162-49.043-21.001 9.634-32.716 15.482-69.635 16.533-109.134h81.766c-2.663 47.472-19.842 92.878-49.256 130.135zm-109.776 72.609V469.27c0-7.19-2.875-14.081-7.986-19.138l-79.312-78.47a26.92 26.92 0 00-18.934-7.784h-40.016V348.87c0-11.151-9.04-20.19-20.191-20.19H20.19C9.039 328.679 0 337.719 0 348.87v135.147h417.744zm-122.489-93.69a3.16 3.16 0 013.163-3.163h14.604c.808 0 1.615.337 2.221.875l62.12 59.293c2.086 1.952.673 5.451-2.153 5.451h-76.792a3.159 3.159 0 01-3.163-3.163v-59.293zm122.489 104.846v44.699c0 11.151-9.04 20.191-20.19 20.191H375.95c-3.903-26.787-26.988-47.381-54.852-47.381-27.795 0-50.88 20.595-54.784 47.381h-109.5c-3.903-26.787-26.989-47.381-54.784-47.381s-50.88 20.595-54.784 47.381H20.19c-11.151 0-20.19-9.04-20.19-20.191v-44.699h417.744zm-96.615 30.996c-23.128 0-41.877 18.749-41.877 41.877s18.749 41.877 41.877 41.877c23.127 0 41.877-18.749 41.877-41.877s-18.75-41.877-41.877-41.877zm0 62.815c-11.564 0-20.938-9.375-20.938-20.938s9.374-20.938 20.938-20.938c11.563 0 20.938 9.374 20.938 20.938s-9.375 20.938-20.938 20.938zM102.022 526.17c-23.127 0-41.876 18.749-41.876 41.877s18.749 41.877 41.876 41.877c23.128 0 41.877-18.749 41.877-41.877s-18.749-41.877-41.877-41.877zm0 62.815c-11.563 0-20.938-9.375-20.938-20.938s9.375-20.938 20.938-20.938c11.564 0 20.938 9.374 20.938 20.938s-9.374 20.938-20.938 20.938z"/></symbol><symbol viewBox="0 0 400.004 400.004" id="uparrow" xmlns="http://www.w3.org/2000/svg"><path d="M382.688 182.686H59.116l77.209-77.214c6.764-6.76 6.764-17.726 0-24.485-6.764-6.764-17.73-6.764-24.484 0L5.073 187.757c-6.764 6.76-6.764 17.727 0 24.485l106.768 106.775a17.252 17.252 0 0012.242 5.072c4.43 0 8.861-1.689 12.242-5.072 6.764-6.76 6.764-17.726 0-24.484l-77.209-77.218h323.572c9.562 0 17.316-7.753 17.316-17.315 0-9.562-7.753-17.314-17.316-17.314z" data-original="#000000" class="lactive-path" fill="#fff"/></symbol></svg>